<?xml version="1.0" encoding="UTF-8" standalone="no"?>
<!-- Created with Inkscape (http://www.inkscape.org/) -->

<svg
   xmlns:dc="http://purl.org/dc/elements/1.1/"
   xmlns:cc="http://creativecommons.org/ns#"
   xmlns:rdf="http://www.w3.org/1999/02/22-rdf-syntax-ns#"
   xmlns:svg="http://www.w3.org/2000/svg"
   xmlns="http://www.w3.org/2000/svg"
   xmlns:sodipodi="http://sodipodi.sourceforge.net/DTD/sodipodi-0.dtd"
   xmlns:inkscape="http://www.inkscape.org/namespaces/inkscape"
   width="210mm"
   height="297mm"
   viewBox="0 0 744.09448819 1052.3622047"
   id="svg4723"
   version="1.1"
   inkscape:version="0.91 r13725"
   sodipodi:docname="UI.svg">
  <defs
     id="defs4725" />
  <sodipodi:namedview
     id="base"
     pagecolor="#ffffff"
     bordercolor="#666666"
     borderopacity="1.0"
     inkscape:pageopacity="0.0"
     inkscape:pageshadow="2"
     inkscape:zoom="0.72778342"
     inkscape:cx="162.03462"
     inkscape:cy="730.296"
     inkscape:document-units="px"
     inkscape:current-layer="layer1"
     showgrid="false"
     inkscape:window-width="1920"
     inkscape:window-height="1027"
     inkscape:window-x="-8"
     inkscape:window-y="-8"
     inkscape:window-maximized="1" />
  <metadata
     id="metadata4728">
    <rdf:RDF>
      <cc:Work
         rdf:about="">
        <dc:format>image/svg+xml</dc:format>
        <dc:type
           rdf:resource="http://purl.org/dc/dcmitype/StillImage" />
        <dc:title />
      </cc:Work>
    </rdf:RDF>
  </metadata>
  <g
     inkscape:label="Ebene 1"
     inkscape:groupmode="layer"
     id="layer1">
    <path
       inkscape:connector-curvature="0"
       style="color:#000000;display:inline;overflow:visible;visibility:visible;opacity:1;fill:#000080;fill-opacity:1;fill-rule:nonzero;stroke:none;stroke-width:3;stroke-linecap:round;stroke-miterlimit:4;stroke-dasharray:none;stroke-opacity:1;marker:none;enable-background:accumulate"
       d="m 104.15155,49.29029 0,25.462532 25.46253,0 0,-25.462532 -25.46253,0 z m 25.46253,25.462532 0,25.462538 -25.46253,0 0,25.46253 -25.462528,0 0,25.46253 -25.46253,0 0,25.46253 0,25.46253 0,25.46254 25.46253,0 0,-25.46254 0,-25.46253 25.462528,0 0,25.46253 0,25.46254 25.46253,0 0,-25.46254 127.31266,0 0,25.46254 25.46254,0 0,-25.46254 0,-25.46253 25.46253,0 0,25.46253 0,25.46254 25.46253,0 0,-25.46254 0,-25.46253 0,-25.46253 -25.46253,0 0,-25.46253 -25.46253,0 0,-25.46253 -25.46254,0 0,-25.462538 -25.46253,0 0,25.462538 -76.3876,0 0,-25.462538 -25.46253,0 z m 127.31266,0 25.46254,0 0,-25.462532 -25.46254,0 0,25.462532 z m 0,152.775198 -50.92506,0 0,25.46253 50.92506,0 0,-25.46253 z m -127.31266,0 0,25.46253 50.92507,0 0,-25.46253 -50.92507,0 z m 0,-101.85013 25.46253,0 0,25.46253 -25.46253,0 0,-25.46253 z m 101.85013,0 25.46253,0 0,25.46253 -25.46253,0 0,-25.46253 z"
       id="rect4684" />
    <path
       inkscape:connector-curvature="0"
       style="color:#000000;display:inline;overflow:visible;visibility:visible;opacity:1;fill:#000080;fill-opacity:1;fill-rule:nonzero;stroke:none;stroke-width:3;stroke-linecap:round;stroke-miterlimit:4;stroke-dasharray:none;stroke-opacity:1;marker:none;enable-background:accumulate"
       d="m 429.07582,49.925677 0,26.39158 26.39158,0 0,-26.39158 -26.39158,0 z m 26.39158,26.39158 0,26.391583 -26.39158,0 0,26.39157 -26.39158,0 0,-52.783153 -26.39158,0 0,105.566313 26.39158,0 0,26.39158 26.39158,0 0,26.39158 26.39158,0 0,-26.39158 131.95789,0 0,26.39158 26.39157,0 0,-26.39158 26.39157,0 0,-26.39158 26.39158,0 0,-105.566313 -26.39158,0 0,52.783153 -26.39157,0 0,-26.39157 -26.39157,0 0,-26.391583 -26.39158,0 0,26.391583 -79.17474,0 0,-26.391583 -26.39157,0 z m 131.95789,0 26.39157,0 0,-26.39158 -26.39157,0 0,26.39158 z m 26.39157,158.349473 0,26.39158 26.39157,0 0,-26.39158 -26.39157,0 z m -184.74104,0 -26.39158,0 0,26.39158 26.39158,0 0,-26.39158 z m 26.39158,-105.56632 26.39157,0 0,26.39158 -26.39157,0 0,-26.39158 z m 105.56631,0 26.39158,0 0,26.39158 -26.39158,0 0,-26.39158 z"
       id="rect5286" />
  </g>
</svg>
